<svg width="32" height="32" viewBox="0 0 32 32" fill="none" xmlns="http://www.w3.org/2000/svg">
<path d="M16 26.6667V14.6667" stroke="#2D5016" stroke-width="2.66667" stroke-linecap="round" stroke-linejoin="round"/>
<path d="M18.6667 9.33334C20.0812 9.33334 21.4377 9.89525 22.4379 10.8954C23.4381 11.8956 24 13.2522 24 14.6667V18.6667C24 20.7884 23.1571 22.8232 21.6569 24.3235C20.1566 25.8238 18.1217 26.6667 16 26.6667C13.8783 26.6667 11.8434 25.8238 10.3431 24.3235C8.84286 22.8232 8 20.7884 8 18.6667V14.6667C8 13.2522 8.5619 11.8956 9.5621 10.8954C10.5623 9.89525 11.9188 9.33334 13.3333 9.33334H18.6667Z" stroke="#2D5016" stroke-width="2.66667" stroke-linecap="round" stroke-linejoin="round"/>
<path d="M18.8267 5.17332L21.3333 2.66666" stroke="#2D5016" stroke-width="2.66667" stroke-linecap="round" stroke-linejoin="round"/>
<path d="M28 28C28.0015 26.6283 27.4745 25.3088 26.5285 24.3156C25.5824 23.3223 24.2901 22.7318 22.92 22.6667" stroke="#2D5016" stroke-width="2.66667" stroke-linecap="round" stroke-linejoin="round"/>
<path d="M28 6.66666C27.9985 7.97619 27.5152 9.2394 26.6423 10.2156C25.7694 11.1918 24.5679 11.8127 23.2667 11.96" stroke="#2D5016" stroke-width="2.66667" stroke-linecap="round" stroke-linejoin="round"/>
<path d="M29.3333 17.3333H24" stroke="#2D5016" stroke-width="2.66667" stroke-linecap="round" stroke-linejoin="round"/>
<path d="M4 28C3.99846 26.6283 4.52545 25.3088 5.47149 24.3156C6.41754 23.3223 7.70988 22.7318 9.08 22.6667" stroke="#2D5016" stroke-width="2.66667" stroke-linecap="round" stroke-linejoin="round"/>
<path d="M4 6.66666C4.00151 7.97619 4.48476 9.2394 5.35766 10.2156C6.23057 11.1918 7.43211 11.8127 8.73333 11.96" stroke="#2D5016" stroke-width="2.66667" stroke-linecap="round" stroke-linejoin="round"/>
<path d="M8.00002 17.3333H2.66669" stroke="#2D5016" stroke-width="2.66667" stroke-linecap="round" stroke-linejoin="round"/>
<path d="M10.6667 2.66666L13.1734 5.17332" stroke="#2D5016" stroke-width="2.66667" stroke-linecap="round" stroke-linejoin="round"/>
<path d="M12 9.50667V8C12 6.93913 12.4214 5.92172 13.1716 5.17157C13.9217 4.42143 14.9391 4 16 4C17.0609 4 18.0783 4.42143 18.8284 5.17157C19.5786 5.92172 20 6.93913 20 8V9.50667" stroke="#2D5016" stroke-width="2.66667" stroke-linecap="round" stroke-linejoin="round"/>
</svg>
