<svg width="32" height="32" viewBox="0 0 32 32" fill="none" xmlns="http://www.w3.org/2000/svg">
<path d="M9.33333 21.7333C12.2667 21.7333 14.6667 19.2933 14.6667 16.3333C14.6667 14.7866 13.9067 13.32 12.3867 12.08C10.8667 10.84 9.72 8.99998 9.33333 7.06665C8.94667 8.99998 7.81333 10.8533 6.28 12.08C4.74667 13.3067 4 14.8 4 16.3333C4 19.2933 6.4 21.7333 9.33333 21.7333Z" stroke="#2D5016" stroke-width="2.66667" stroke-linecap="round" stroke-linejoin="round"/>
<path d="M16.7467 8.80004C17.6637 7.33487 18.3137 5.71876 18.6667 4.0267C19.3333 7.36004 21.3333 10.56 24 12.6934C26.6667 14.8267 28 17.36 28 20.0267C28.0076 21.8698 27.4678 23.6736 26.4491 25.2095C25.4303 26.7454 23.9784 27.9442 22.2775 28.654C20.5766 29.3638 18.7032 29.5526 16.8949 29.1964C15.0866 28.8402 13.4247 27.9552 12.12 26.6534" stroke="#2D5016" stroke-width="2.66667" stroke-linecap="round" stroke-linejoin="round"/>
</svg>
