<svg width="32" height="32" viewBox="0 0 32 32" fill="none" xmlns="http://www.w3.org/2000/svg">
<path d="M8 12C10.2091 12 12 10.2091 12 8C12 5.79086 10.2091 4 8 4C5.79086 4 4 5.79086 4 8C4 10.2091 5.79086 12 8 12Z" stroke="#2D5016" stroke-width="2.66667" stroke-linecap="round" stroke-linejoin="round"/>
<path d="M10.8267 10.8267L16 16" stroke="#2D5016" stroke-width="2.66667" stroke-linecap="round" stroke-linejoin="round"/>
<path d="M26.6667 5.33334L10.8267 21.1733" stroke="#2D5016" stroke-width="2.66667" stroke-linecap="round" stroke-linejoin="round"/>
<path d="M8 28C10.2091 28 12 26.2091 12 24C12 21.7909 10.2091 20 8 20C5.79086 20 4 21.7909 4 24C4 26.2091 5.79086 28 8 28Z" stroke="#2D5016" stroke-width="2.66667" stroke-linecap="round" stroke-linejoin="round"/>
<path d="M19.7333 19.7333L26.6667 26.6667" stroke="#2D5016" stroke-width="2.66667" stroke-linecap="round" stroke-linejoin="round"/>
</svg>
