<svg width="32" height="32" viewBox="0 0 32 32" fill="none" xmlns="http://www.w3.org/2000/svg">
<path d="M18.6667 12.7147V9.33333C18.6667 7.91885 19.2286 6.56229 20.2288 5.5621C21.229 4.5619 22.5855 4 24 4H26C26.1768 4 26.3464 4.07024 26.4714 4.19526C26.5964 4.32029 26.6667 4.48986 26.6667 4.66667V6.66667C26.6667 8.08115 26.1048 9.43771 25.1046 10.4379C24.1044 11.4381 22.7478 12 21.3333 12C19.9188 12 18.5623 12.5619 17.5621 13.5621C16.5619 14.5623 16 15.9188 16 17.3333C16 20 17.3333 21.3333 17.3333 24C17.3333 25.4425 16.8655 26.846 16 28" stroke="#2D5016" stroke-width="2.66667" stroke-linecap="round" stroke-linejoin="round"/>
<path d="M5.33334 12C6.32381 11.2571 7.50156 10.8048 8.73464 10.6936C9.96772 10.5824 11.2074 10.8168 12.3148 11.3705C13.4221 11.9242 14.3535 12.7753 15.0043 13.8285C15.6552 14.8816 16 16.0952 16 17.3333C15.0095 18.0762 13.8318 18.5285 12.5987 18.6397C11.3656 18.7509 10.126 18.5165 9.01859 17.9628C7.91121 17.4092 6.9799 16.558 6.329 15.5049C5.67811 14.4517 5.33334 13.2381 5.33334 12Z" stroke="#2D5016" stroke-width="2.66667" stroke-linecap="round" stroke-linejoin="round"/>
<path d="M6.66666 28H25.3333" stroke="#2D5016" stroke-width="2.66667" stroke-linecap="round" stroke-linejoin="round"/>
</svg>
