<svg width="20" height="20" viewBox="0 0 20 20" fill="none" xmlns="http://www.w3.org/2000/svg">
<g clip-path="url(#clip0_3_217)">
<path d="M11.6667 3.33329V12.1166C12.3022 12.4835 12.7988 13.0498 13.0796 13.7278C13.3604 14.4057 13.4097 15.1573 13.2198 15.8661C13.0299 16.5749 12.6114 17.2012 12.0292 17.6479C11.4471 18.0946 10.7338 18.3367 10 18.3367C9.26624 18.3367 8.55296 18.0946 7.97082 17.6479C7.38867 17.2012 6.97019 16.5749 6.78027 15.8661C6.59035 15.1573 6.63962 14.4057 6.92042 13.7278C7.20123 13.0498 7.69788 12.4835 8.33336 12.1166V3.33329C8.33336 2.89127 8.50895 2.46734 8.82151 2.15478C9.13407 1.84222 9.55799 1.66663 10 1.66663C10.442 1.66663 10.866 1.84222 11.1785 2.15478C11.4911 2.46734 11.6667 2.89127 11.6667 3.33329Z" stroke="#2D5016" stroke-width="1.66667" stroke-linecap="round" stroke-linejoin="round"/>
</g>
<defs>
<clipPath id="clip0_3_217">
<rect width="20" height="20" fill="white"/>
</clipPath>
</defs>
</svg>
